<svg xmlns="http://www.w3.org/2000/svg" width="1280" height="720" viewBox="0 0 1280 720"><rect width="1280" height="720" fill="#0f172a"/><rect x="70" y="60" width="1140" height="600" rx="28" fill="#111827" stroke="#334155"/><text x="105" y="115" fill="#e5e7eb" font-size="36" font-family="Segoe UI, Arial" font-weight="800">SaifiTRTradingAndroid real source structure</text><text x="105" y="155" fill="#93c5fd" font-size="20" font-family="Segoe UI, Arial">Actual project files found in the local repository</text><rect x="105" y="190" width="980" height="18" rx="5" fill="#1e293b"/><text x="120" y="204" fill="#cbd5e1" font-size="15" font-family="Consolas, monospace">.git/COMMIT_EDITMSG</text><rect x="105" y="214" width="980" height="18" rx="5" fill="#172033"/><text x="120" y="228" fill="#cbd5e1" font-size="15" font-family="Consolas, monospace">.git/config</text><rect x="105" y="238" width="980" height="18" rx="5" fill="#1e293b"/><text x="120" y="252" fill="#cbd5e1" font-size="15" font-family="Consolas, monospace">.git/description</text><rect x="105" y="262" width="980" height="18" rx="5" fill="#172033"/><text x="120" y="276" fill="#cbd5e1" font-size="15" font-family="Consolas, monospace">.git/FETCH_HEAD</text><rect x="105" y="286" width="980" height="18" rx="5" fill="#1e293b"/><text x="120" y="300" fill="#cbd5e1" font-size="15" font-family="Consolas, monospace">.git/HEAD</text><rect x="105" y="310" width="980" height="18" rx="5" fill="#172033"/><text x="120" y="324" fill="#cbd5e1" font-size="15" font-family="Consolas, monospace">.git/hooks/applypatch-msg.sample</text><rect x="105" y="334" width="980" height="18" rx="5" fill="#1e293b"/><text x="120" y="348" fill="#cbd5e1" font-size="15" font-family="Consolas, monospace">.git/hooks/commit-msg.sample</text><rect x="105" y="358" width="980" height="18" rx="5" fill="#172033"/><text x="120" y="372" fill="#cbd5e1" font-size="15" font-family="Consolas, monospace">.git/hooks/fsmonitor-watchman.sample</text><rect x="105" y="382" width="980" height="18" rx="5" fill="#1e293b"/><text x="120" y="396" fill="#cbd5e1" font-size="15" font-family="Consolas, monospace">.git/hooks/post-update.sample</text><rect x="105" y="406" width="980" height="18" rx="5" fill="#172033"/><text x="120" y="420" fill="#cbd5e1" font-size="15" font-family="Consolas, monospace">.git/hooks/pre-applypatch.sample</text><rect x="105" y="430" width="980" height="18" rx="5" fill="#1e293b"/><text x="120" y="444" fill="#cbd5e1" font-size="15" font-family="Consolas, monospace">.git/hooks/pre-commit.sample</text><rect x="105" y="454" width="980" height="18" rx="5" fill="#172033"/><text x="120" y="468" fill="#cbd5e1" font-size="15" font-family="Consolas, monospace">.git/hooks/pre-merge-commit.sample</text><rect x="105" y="478" width="980" height="18" rx="5" fill="#1e293b"/><text x="120" y="492" fill="#cbd5e1" font-size="15" font-family="Consolas, monospace">.git/hooks/pre-push.sample</text><rect x="105" y="502" width="980" height="18" rx="5" fill="#172033"/><text x="120" y="516" fill="#cbd5e1" font-size="15" font-family="Consolas, monospace">.git/hooks/pre-rebase.sample</text><rect x="105" y="526" width="980" height="18" rx="5" fill="#1e293b"/><text x="120" y="540" fill="#cbd5e1" font-size="15" font-family="Consolas, monospace">.git/hooks/pre-receive.sample</text><rect x="105" y="550" width="980" height="18" rx="5" fill="#172033"/><text x="120" y="564" fill="#cbd5e1" font-size="15" font-family="Consolas, monospace">.git/hooks/prepare-commit-msg.sample</text><rect x="105" y="574" width="980" height="18" rx="5" fill="#1e293b"/><text x="120" y="588" fill="#cbd5e1" font-size="15" font-family="Consolas, monospace">.git/hooks/push-to-checkout.sample</text><rect x="105" y="598" width="980" height="18" rx="5" fill="#172033"/><text x="120" y="612" fill="#cbd5e1" font-size="15" font-family="Consolas, monospace">.git/hooks/sendemail-validate.sample</text><text x="105" y="650" fill="#94a3b8" font-size="18" font-family="Segoe UI, Arial">Runtime phone screenshots need an emulator/device build. This image shows the real checked project structure.</text></svg>